{
    "streams": [
        {
            "index": 0,
            "codec_name": "h264",
            "codec_long_name": "H.264 / AVC / MPEG-4 AVC / MPEG-4 part 10",
            "profile": "High",
            "codec_type": "video",
            "codec_tag_string": "[0][0][0][0]",
            "codec_tag": "0x0000",
            "width": 1920,
            "height": 1080,
            "coded_width": 1920,
            "coded_height": 1080,
            "closed_captions": 0,
            "film_grain": 0,
            "has_b_frames": 4,
            "sample_aspect_ratio": "1:1",
            "display_aspect_ratio": "16:9",
            "pix_fmt": "yuv420p",
            "level": 41,
            "color_range": "tv",
            "color_space": "bt709",
            "color_transfer": "bt709",
            "color_primaries": "bt709",
            "chroma_location": "left",
            "field_order": "progressive",
            "refs": 1,
            "is_avc": "true",
            "nal_length_size": "4",
            "r_frame_rate": "24000/1001",
            "avg_frame_rate": "24000/1001",
            "time_base": "1/1000",
            "start_pts": 0,
            "start_time": "0.000000",
            "bits_per_raw_sample": "8",
            "extradata_size": 93,
            "disposition": {
                "default": 1,
                "dub": 0,
                "original": 0,
                "comment": 0,
                "lyrics": 0,
                "karaoke": 0,
                "forced": 0,
                "hearing_impaired": 0,
                "visual_impaired": 0,
                "clean_effects": 0,
                "attached_pic": 0,
                "timed_thumbnails": 0,
                "non_diegetic": 0,
                "captions": 0,
                "descriptions": 0,
                "metadata": 0,
                "dependent": 0,
                "still_image": 0
            },
            "tags": {
                "BPS": "26221617",
                "DURATION": "02:30:50.208000000",
                "NUMBER_OF_FRAMES": "216988",
                "NUMBER_OF_BYTES": "29663886931",
                "_STATISTICS_WRITING_APP": "mkvmerge v88.0 ('All I Know') 64-bit",
                "_STATISTICS_WRITING_DATE_UTC": "2024-10-31 05:35:55",
                "_STATISTICS_TAGS": "BPS DURATION NUMBER_OF_FRAMES NUMBER_OF_BYTES"
            }
        },
        {
            "index": 1,
            "codec_name": "dts",
            "codec_long_name": "DCA (DTS Coherent Acoustics)",
            "profile": "DTS-HD MA",
            "codec_type": "audio",
            "codec_tag_string": "[0][0][0][0]",
            "codec_tag": "0x0000",
            "sample_fmt": "s32p",
            "sample_rate": "48000",
            "channels": 6,
            "channel_layout": "5.1(side)",
            "bits_per_sample": 0,
            "initial_padding": 0,
            "r_frame_rate": "0/0",
            "avg_frame_rate": "0/0",
            "time_base": "1/1000",
            "start_pts": 0,
            "start_time": "0.000000",
            "bits_per_raw_sample": "24",
            "disposition": {
                "default": 1,
                "dub": 0,
                "original": 0,
                "comment": 0,
                "lyrics": 0,
                "karaoke": 0,
                "forced": 0,
                "hearing_impaired": 0,
                "visual_impaired": 0,
                "clean_effects": 0,
                "attached_pic": 0,
                "timed_thumbnails": 0,
                "non_diegetic": 0,
                "captions": 0,
                "descriptions": 0,
                "metadata": 0,
                "dependent": 0,
                "still_image": 0
            },
            "tags": {
                "language": "eng",
                "title": "English [DTS-HD MA 5.1]",
                "BPS": "4775955",
                "DURATION": "02:30:50.208000000",
                "NUMBER_OF_FRAMES": "848457",
                "NUMBER_OF_BYTES": "5402924236",
                "_STATISTICS_WRITING_APP": "mkvmerge v88.0 ('All I Know') 64-bit",
                "_STATISTICS_WRITING_DATE_UTC": "2024-10-31 05:35:55",
                "_STATISTICS_TAGS": "BPS DURATION NUMBER_OF_FRAMES NUMBER_OF_BYTES"
            }
        },
        {
            "index": 2,
            "codec_name": "dts",
            "codec_long_name": "DCA (DTS Coherent Acoustics)",
            "profile": "DTS",
            "codec_type": "audio",
            "codec_tag_string": "[0][0][0][0]",
            "codec_tag": "0x0000",
            "sample_fmt": "fltp",
            "sample_rate": "48000",
            "channels": 6,
            "channel_layout": "5.1(side)",
            "bits_per_sample": 0,
            "initial_padding": 0,
            "r_frame_rate": "0/0",
            "avg_frame_rate": "0/0",
            "time_base": "1/1000",
            "start_pts": 0,
            "start_time": "0.000000",
            "bit_rate": "1536000",
            "disposition": {
                "default": 0,
                "dub": 0,
                "original": 0,
                "comment": 0,
                "lyrics": 0,
                "karaoke": 0,
                "forced": 0,
                "hearing_impaired": 0,
                "visual_impaired": 0,
                "clean_effects": 0,
                "attached_pic": 0,
                "timed_thumbnails": 0,
                "non_diegetic": 0,
                "captions": 0,
                "descriptions": 0,
                "metadata": 0,
                "dependent": 0,
                "still_image": 0
            },
            "tags": {
                "language": "fre",
                "title": "French (France) [DTS 5.1]",
                "BPS": "1509000",
                "DURATION": "02:30:50.208000000",
                "NUMBER_OF_FRAMES": "848457",
                "NUMBER_OF_BYTES": "1707095484",
                "_STATISTICS_WRITING_APP": "mkvmerge v88.0 ('All I Know') 64-bit",
                "_STATISTICS_WRITING_DATE_UTC": "2024-10-31 05:35:55",
                "_STATISTICS_TAGS": "BPS DURATION NUMBER_OF_FRAMES NUMBER_OF_BYTES"
            }
        },
        {
            "index": 3,
            "codec_name": "dts",
            "codec_long_name": "DCA (DTS Coherent Acoustics)",
            "profile": "DTS",
            "codec_type": "audio",
            "codec_tag_string": "[0][0][0][0]",
            "codec_tag": "0x0000",
            "sample_fmt": "fltp",
            "sample_rate": "48000",
            "channels": 6,
            "channel_layout": "5.1(side)",
            "bits_per_sample": 0,
            "initial_padding": 0,
            "r_frame_rate": "0/0",
            "avg_frame_rate": "0/0",
            "time_base": "1/1000",
            "start_pts": 0,
            "start_time": "0.000000",
            "bit_rate": "1536000",
            "disposition": {
                "default": 0,
                "dub": 0,
                "original": 0,
                "comment": 0,
                "lyrics": 0,
                "karaoke": 0,
                "forced": 0,
                "hearing_impaired": 0,
                "visual_impaired": 0,
                "clean_effects": 0,
                "attached_pic": 0,
                "timed_thumbnails": 0,
                "non_diegetic": 0,
                "captions": 0,
                "descriptions": 0,
                "metadata": 0,
                "dependent": 0,
                "still_image": 0
            },
            "tags": {
                "language": "ger",
                "title": "German [DTS 5.1]",
                "BPS": "1509000",
                "DURATION": "02:30:50.176000000",
                "NUMBER_OF_FRAMES": "848454",
                "NUMBER_OF_BYTES": "1707089448",
                "_STATISTICS_WRITING_APP": "mkvmerge v88.0 ('All I Know') 64-bit",
                "_STATISTICS_WRITING_DATE_UTC": "2024-10-31 05:35:55",
                "_STATISTICS_TAGS": "BPS DURATION NUMBER_OF_FRAMES NUMBER_OF_BYTES"
            }
        },
        {
            "index": 4,
            "codec_name": "dts",
            "codec_long_name": "DCA (DTS Coherent Acoustics)",
            "profile": "DTS",
            "codec_type": "audio",
            "codec_tag_string": "[0][0][0][0]",
            "codec_tag": "0x0000",
            "sample_fmt": "fltp",
            "sample_rate": "48000",
            "channels": 6,
            "channel_layout": "5.1(side)",
            "bits_per_sample": 0,
            "initial_padding": 0,
            "r_frame_rate": "0/0",
            "avg_frame_rate": "0/0",
            "time_base": "1/1000",
            "start_pts": 0,
            "start_time": "0.000000",
            "bit_rate": "1536000",
            "disposition": {
                "default": 0,
                "dub": 0,
                "original": 0,
                "comment": 0,
                "lyrics": 0,
                "karaoke": 0,
                "forced": 0,
                "hearing_impaired": 0,
                "visual_impaired": 0,
                "clean_effects": 0,
                "attached_pic": 0,
                "timed_thumbnails": 0,
                "non_diegetic": 0,
                "captions": 0,
                "descriptions": 0,
                "metadata": 0,
                "dependent": 0,
                "still_image": 0
            },
            "tags": {
                "language": "ita",
                "title": "Italian [DTS 5.1]",
                "BPS": "1509000",
                "DURATION": "02:30:50.176000000",
                "NUMBER_OF_FRAMES": "848454",
                "NUMBER_OF_BYTES": "1707089448",
                "_STATISTICS_WRITING_APP": "mkvmerge v88.0 ('All I Know') 64-bit",
                "_STATISTICS_WRITING_DATE_UTC": "2024-10-31 05:35:55",
                "_STATISTICS_TAGS": "BPS DURATION NUMBER_OF_FRAMES NUMBER_OF_BYTES"
            }
        },
        {
            "index": 5,
            "codec_name": "dts",
            "codec_long_name": "DCA (DTS Coherent Acoustics)",
            "profile": "DTS",
            "codec_type": "audio",
            "codec_tag_string": "[0][0][0][0]",
            "codec_tag": "0x0000",
            "sample_fmt": "fltp",
            "sample_rate": "48000",
            "channels": 6,
            "channel_layout": "5.1(side)",
            "bits_per_sample": 0,
            "initial_padding": 0,
            "r_frame_rate": "0/0",
            "avg_frame_rate": "0/0",
            "time_base": "1/1000",
            "start_pts": 0,
            "start_time": "0.000000",
            "bit_rate": "1536000",
            "disposition": {
                "default": 0,
                "dub": 0,
                "original": 0,
                "comment": 0,
                "lyrics": 0,
                "karaoke": 0,
                "forced": 0,
                "hearing_impaired": 0,
                "visual_impaired": 0,
                "clean_effects": 0,
                "attached_pic": 0,
                "timed_thumbnails": 0,
                "non_diegetic": 0,
                "captions": 0,
                "descriptions": 0,
                "metadata": 0,
                "dependent": 0,
                "still_image": 0
            },
            "tags": {
                "language": "spa",
                "title": "Spanish (Spain) [DTS 5.1]",
                "BPS": "1509000",
                "DURATION": "02:30:50.208000000",
                "NUMBER_OF_FRAMES": "848457",
                "NUMBER_OF_BYTES": "1707095484",
                "_STATISTICS_WRITING_APP": "mkvmerge v88.0 ('All I Know') 64-bit",
                "_STATISTICS_WRITING_DATE_UTC": "2024-10-31 05:35:55",
                "_STATISTICS_TAGS": "BPS DURATION NUMBER_OF_FRAMES NUMBER_OF_BYTES"
            }
        },
        {
            "index": 6,
            "codec_name": "ac3",
            "codec_long_name": "ATSC A/52A (AC-3)",
            "codec_type": "audio",
            "codec_tag_string": "[0][0][0][0]",
            "codec_tag": "0x0000",
            "sample_fmt": "fltp",
            "sample_rate": "48000",
            "channels": 2,
            "channel_layout": "stereo",
            "bits_per_sample": 0,
            "initial_padding": 0,
            "r_frame_rate": "0/0",
            "avg_frame_rate": "0/0",
            "time_base": "1/1000",
            "start_pts": 0,
            "start_time": "0.000000",
            "bit_rate": "320000",
            "disposition": {
                "default": 0,
                "dub": 0,
                "original": 0,
                "comment": 0,
                "lyrics": 0,
                "karaoke": 0,
                "forced": 0,
                "hearing_impaired": 0,
                "visual_impaired": 0,
                "clean_effects": 0,
                "attached_pic": 0,
                "timed_thumbnails": 0,
                "non_diegetic": 0,
                "captions": 0,
                "descriptions": 0,
                "metadata": 0,
                "dependent": 0,
                "still_image": 0
            },
            "tags": {
                "language": "cze",
                "title": "Czech [Dolby Digital 2.0]",
                "BPS": "320000",
                "DURATION": "02:30:50.208000000",
                "NUMBER_OF_FRAMES": "282819",
                "NUMBER_OF_BYTES": "362008320",
                "_STATISTICS_WRITING_APP": "mkvmerge v88.0 ('All I Know') 64-bit",
                "_STATISTICS_WRITING_DATE_UTC": "2024-10-31 05:35:55",
                "_STATISTICS_TAGS": "BPS DURATION NUMBER_OF_FRAMES NUMBER_OF_BYTES"
            }
        },
        {
            "index": 7,
            "codec_name": "ac3",
            "codec_long_name": "ATSC A/52A (AC-3)",
            "codec_type": "audio",
            "codec_tag_string": "[0][0][0][0]",
            "codec_tag": "0x0000",
            "sample_fmt": "fltp",
            "sample_rate": "48000",
            "channels": 2,
            "channel_layout": "stereo",
            "bits_per_sample": 0,
            "initial_padding": 0,
            "r_frame_rate": "0/0",
            "avg_frame_rate": "0/0",
            "time_base": "1/1000",
            "start_pts": 0,
            "start_time": "0.000000",
            "bit_rate": "320000",
            "disposition": {
                "default": 0,
                "dub": 0,
                "original": 0,
                "comment": 0,
                "lyrics": 0,
                "karaoke": 0,
                "forced": 0,
                "hearing_impaired": 0,
                "visual_impaired": 0,
                "clean_effects": 0,
                "attached_pic": 0,
                "timed_thumbnails": 0,
                "non_diegetic": 0,
                "captions": 0,
                "descriptions": 0,
                "metadata": 0,
                "dependent": 0,
                "still_image": 0
            },
            "tags": {
                "language": "hun",
                "title": "Hungarian [Dolby Digital 2.0]",
                "BPS": "320000",
                "DURATION": "02:30:50.208000000",
                "NUMBER_OF_FRAMES": "282819",
                "NUMBER_OF_BYTES": "362008320",
                "_STATISTICS_WRITING_APP": "mkvmerge v88.0 ('All I Know') 64-bit",
                "_STATISTICS_WRITING_DATE_UTC": "2024-10-31 05:35:55",
                "_STATISTICS_TAGS": "BPS DURATION NUMBER_OF_FRAMES NUMBER_OF_BYTES"
            }
        },
        {
            "index": 8,
            "codec_name": "ac3",
            "codec_long_name": "ATSC A/52A (AC-3)",
            "codec_type": "audio",
            "codec_tag_string": "[0][0][0][0]",
            "codec_tag": "0x0000",
            "sample_fmt": "fltp",
            "sample_rate": "48000",
            "channels": 6,
            "channel_layout": "5.1(side)",
            "bits_per_sample": 0,
            "initial_padding": 0,
            "r_frame_rate": "0/0",
            "avg_frame_rate": "0/0",
            "time_base": "1/1000",
            "start_pts": 0,
            "start_time": "0.000000",
            "bit_rate": "640000",
            "disposition": {
                "default": 0,
                "dub": 0,
                "original": 0,
                "comment": 0,
                "lyrics": 0,
                "karaoke": 0,
                "forced": 0,
                "hearing_impaired": 0,
                "visual_impaired": 0,
                "clean_effects": 0,
                "attached_pic": 0,
                "timed_thumbnails": 0,
                "non_diegetic": 0,
                "captions": 0,
                "descriptions": 0,
                "metadata": 0,
                "dependent": 0,
                "still_image": 0
            },
            "tags": {
                "language": "pol",
                "title": "Polish [Dolby Digital 5.1]",
                "BPS": "640000",
                "DURATION": "02:30:50.208000000",
                "NUMBER_OF_FRAMES": "282819",
                "NUMBER_OF_BYTES": "724016640",
                "_STATISTICS_WRITING_APP": "mkvmerge v88.0 ('All I Know') 64-bit",
                "_STATISTICS_WRITING_DATE_UTC": "2024-10-31 05:35:55",
                "_STATISTICS_TAGS": "BPS DURATION NUMBER_OF_FRAMES NUMBER_OF_BYTES"
            }
        },
        {
            "index": 9,
            "codec_name": "ac3",
            "codec_long_name": "ATSC A/52A (AC-3)",
            "codec_type": "audio",
            "codec_tag_string": "[0][0][0][0]",
            "codec_tag": "0x0000",
            "sample_fmt": "fltp",
            "sample_rate": "48000",
            "channels": 6,
            "channel_layout": "5.1(side)",
            "bits_per_sample": 0,
            "initial_padding": 0,
            "r_frame_rate": "0/0",
            "avg_frame_rate": "0/0",
            "time_base": "1/1000",
            "start_pts": 0,
            "start_time": "0.000000",
            "bit_rate": "640000",
            "disposition": {
                "default": 0,
                "dub": 0,
                "original": 0,
                "comment": 0,
                "lyrics": 0,
                "karaoke": 0,
                "forced": 0,
                "hearing_impaired": 0,
                "visual_impaired": 0,
                "clean_effects": 0,
                "attached_pic": 0,
                "timed_thumbnails": 0,
                "non_diegetic": 0,
                "captions": 0,
                "descriptions": 0,
                "metadata": 0,
                "dependent": 0,
                "still_image": 0
            },
            "tags": {
                "language": "rus",
                "title": "Russian [Dolby Digital 5.1]",
                "BPS": "640000",
                "DURATION": "02:30:50.208000000",
                "NUMBER_OF_FRAMES": "282819",
                "NUMBER_OF_BYTES": "724016640",
                "_STATISTICS_WRITING_APP": "mkvmerge v88.0 ('All I Know') 64-bit",
                "_STATISTICS_WRITING_DATE_UTC": "2024-10-31 05:35:55",
                "_STATISTICS_TAGS": "BPS DURATION NUMBER_OF_FRAMES NUMBER_OF_BYTES"
            }
        },
        {
            "index": 10,
            "codec_name": "hdmv_pgs_subtitle",
            "codec_long_name": "HDMV Presentation Graphic Stream subtitles",
            "codec_type": "subtitle",
            "codec_tag_string": "[0][0][0][0]",
            "codec_tag": "0x0000",
            "r_frame_rate": "0/0",
            "avg_frame_rate": "0/0",
            "time_base": "1/1000",
            "start_pts": 0,
            "start_time": "0.000000",
            "duration_ts": 9050208,
            "duration": "9050.208000",
            "disposition": {
                "default": 0,
                "dub": 0,
                "original": 0,
                "comment": 0,
                "lyrics": 0,
                "karaoke": 0,
                "forced": 0,
                "hearing_impaired": 0,
                "visual_impaired": 0,
                "clean_effects": 0,
                "attached_pic": 0,
                "timed_thumbnails": 0,
                "non_diegetic": 0,
                "captions": 0,
                "descriptions": 0,
                "metadata": 0,
                "dependent": 0,
                "still_image": 0
            },
            "tags": {
                "language": "eng",
                "title": "English [Full]",
                "BPS": "52181",
                "DURATION": "02:29:31.587000000",
                "NUMBER_OF_FRAMES": "4622",
                "NUMBER_OF_BYTES": "58518516",
                "_STATISTICS_WRITING_APP": "mkvmerge v88.0 ('All I Know') 64-bit",
                "_STATISTICS_WRITING_DATE_UTC": "2024-10-31 05:35:55",
                "_STATISTICS_TAGS": "BPS DURATION NUMBER_OF_FRAMES NUMBER_OF_BYTES"
            }
        },
        {
            "index": 11,
            "codec_name": "hdmv_pgs_subtitle",
            "codec_long_name": "HDMV Presentation Graphic Stream subtitles",
            "codec_type": "subtitle",
            "codec_tag_string": "[0][0][0][0]",
            "codec_tag": "0x0000",
            "r_frame_rate": "0/0",
            "avg_frame_rate": "0/0",
            "time_base": "1/1000",
            "start_pts": 0,
            "start_time": "0.000000",
            "duration_ts": 9050208,
            "duration": "9050.208000",
            "disposition": {
                "default": 0,
                "dub": 0,
                "original": 0,
                "comment": 0,
                "lyrics": 0,
                "karaoke": 0,
                "forced": 0,
                "hearing_impaired": 0,
                "visual_impaired": 0,
                "clean_effects": 0,
                "attached_pic": 0,
                "timed_thumbnails": 0,
                "non_diegetic": 0,
                "captions": 0,
                "descriptions": 0,
                "metadata": 0,
                "dependent": 0,
                "still_image": 0
            },
            "tags": {
                "language": "eng",
                "title": "English [SDH]",
                "BPS": "54421",
                "DURATION": "02:29:31.796000000",
                "NUMBER_OF_FRAMES": "5152",
                "NUMBER_OF_BYTES": "61032582",
                "_STATISTICS_WRITING_APP": "mkvmerge v88.0 ('All I Know') 64-bit",
                "_STATISTICS_WRITING_DATE_UTC": "2024-10-31 05:35:55",
                "_STATISTICS_TAGS": "BPS DURATION NUMBER_OF_FRAMES NUMBER_OF_BYTES"
            }
        },
        {
            "index": 12,
            "codec_name": "hdmv_pgs_subtitle",
            "codec_long_name": "HDMV Presentation Graphic Stream subtitles",
            "codec_type": "subtitle",
            "codec_tag_string": "[0][0][0][0]",
            "codec_tag": "0x0000",
            "r_frame_rate": "0/0",
            "avg_frame_rate": "0/0",
            "time_base": "1/1000",
            "start_pts": 0,
            "start_time": "0.000000",
            "duration_ts": 9050208,
            "duration": "9050.208000",
            "disposition": {
                "default": 0,
                "dub": 0,
                "original": 0,
                "comment": 0,
                "lyrics": 0,
                "karaoke": 0,
                "forced": 0,
                "hearing_impaired": 0,
                "visual_impaired": 0,
                "clean_effects": 0,
                "attached_pic": 0,
                "timed_thumbnails": 0,
                "non_diegetic": 0,
                "captions": 0,
                "descriptions": 0,
                "metadata": 0,
                "dependent": 0,
                "still_image": 0
            },
            "tags": {
                "language": "fre",
                "title": "French (France) [Full]",
                "BPS": "33064",
                "DURATION": "02:22:45.474000000",
                "NUMBER_OF_FRAMES": "3290",
                "NUMBER_OF_BYTES": "35401723",
                "_STATISTICS_WRITING_APP": "mkvmerge v88.0 ('All I Know') 64-bit",
                "_STATISTICS_WRITING_DATE_UTC": "2024-10-31 05:35:55",
                "_STATISTICS_TAGS": "BPS DURATION NUMBER_OF_FRAMES NUMBER_OF_BYTES"
            }
        },
        {
            "index": 13,
            "codec_name": "hdmv_pgs_subtitle",
            "codec_long_name": "HDMV Presentation Graphic Stream subtitles",
            "codec_type": "subtitle",
            "codec_tag_string": "[0][0][0][0]",
            "codec_tag": "0x0000",
            "r_frame_rate": "0/0",
            "avg_frame_rate": "0/0",
            "time_base": "1/1000",
            "start_pts": 0,
            "start_time": "0.000000",
            "duration_ts": 9050208,
            "duration": "9050.208000",
            "disposition": {
                "default": 0,
                "dub": 0,
                "original": 0,
                "comment": 0,
                "lyrics": 0,
                "karaoke": 0,
                "forced": 0,
                "hearing_impaired": 0,
                "visual_impaired": 0,
                "clean_effects": 0,
                "attached_pic": 0,
                "timed_thumbnails": 0,
                "non_diegetic": 0,
                "captions": 0,
                "descriptions": 0,
                "metadata": 0,
                "dependent": 0,
                "still_image": 0
            },
            "tags": {
                "language": "fre",
                "title": "French (France) [Forced]",
                "BPS": "299",
                "DURATION": "01:44:11.287000000",
                "NUMBER_OF_FRAMES": "32",
                "NUMBER_OF_BYTES": "234395",
                "_STATISTICS_WRITING_APP": "mkvmerge v88.0 ('All I Know') 64-bit",
                "_STATISTICS_WRITING_DATE_UTC": "2024-10-31 05:35:55",
                "_STATISTICS_TAGS": "BPS DURATION NUMBER_OF_FRAMES NUMBER_OF_BYTES"
            }
        },
        {
            "index": 14,
            "codec_name": "hdmv_pgs_subtitle",
            "codec_long_name": "HDMV Presentation Graphic Stream subtitles",
            "codec_type": "subtitle",
            "codec_tag_string": "[0][0][0][0]",
            "codec_tag": "0x0000",
            "r_frame_rate": "0/0",
            "avg_frame_rate": "0/0",
            "time_base": "1/1000",
            "start_pts": 0,
            "start_time": "0.000000",
            "duration_ts": 9050208,
            "duration": "9050.208000",
            "disposition": {
                "default": 0,
                "dub": 0,
                "original": 0,
                "comment": 0,
                "lyrics": 0,
                "karaoke": 0,
                "forced": 0,
                "hearing_impaired": 0,
                "visual_impaired": 0,
                "clean_effects": 0,
                "attached_pic": 0,
                "timed_thumbnails": 0,
                "non_diegetic": 0,
                "captions": 0,
                "descriptions": 0,
                "metadata": 0,
                "dependent": 0,
                "still_image": 0
            },
            "tags": {
                "language": "ger",
                "title": "German [Full]",
                "BPS": "37854",
                "DURATION": "02:22:45.474000000",
                "NUMBER_OF_FRAMES": "3036",
                "NUMBER_OF_BYTES": "40529961",
                "_STATISTICS_WRITING_APP": "mkvmerge v88.0 ('All I Know') 64-bit",
                "_STATISTICS_WRITING_DATE_UTC": "2024-10-31 05:35:55",
                "_STATISTICS_TAGS": "BPS DURATION NUMBER_OF_FRAMES NUMBER_OF_BYTES"
            }
        },
        {
            "index": 15,
            "codec_name": "hdmv_pgs_subtitle",
            "codec_long_name": "HDMV Presentation Graphic Stream subtitles",
            "codec_type": "subtitle",
            "codec_tag_string": "[0][0][0][0]",
            "codec_tag": "0x0000",
            "r_frame_rate": "0/0",
            "avg_frame_rate": "0/0",
            "time_base": "1/1000",
            "start_pts": 0,
            "start_time": "0.000000",
            "duration_ts": 9050208,
            "duration": "9050.208000",
            "disposition": {
                "default": 0,
                "dub": 0,
                "original": 0,
                "comment": 0,
                "lyrics": 0,
                "karaoke": 0,
                "forced": 0,
                "hearing_impaired": 0,
                "visual_impaired": 0,
                "clean_effects": 0,
                "attached_pic": 0,
                "timed_thumbnails": 0,
                "non_diegetic": 0,
                "captions": 0,
                "descriptions": 0,
                "metadata": 0,
                "dependent": 0,
                "still_image": 0
            },
            "tags": {
                "language": "ger",
                "title": "German [Forced]",
                "BPS": "304",
                "DURATION": "01:44:11.287000000",
                "NUMBER_OF_FRAMES": "32",
                "NUMBER_OF_BYTES": "237917",
                "_STATISTICS_WRITING_APP": "mkvmerge v88.0 ('All I Know') 64-bit",
                "_STATISTICS_WRITING_DATE_UTC": "2024-10-31 05:35:55",
                "_STATISTICS_TAGS": "BPS DURATION NUMBER_OF_FRAMES NUMBER_OF_BYTES"
            }
        },
        {
            "index": 16,
            "codec_name": "hdmv_pgs_subtitle",
            "codec_long_name": "HDMV Presentation Graphic Stream subtitles",
            "codec_type": "subtitle",
            "codec_tag_string": "[0][0][0][0]",
            "codec_tag": "0x0000",
            "r_frame_rate": "0/0",
            "avg_frame_rate": "0/0",
            "time_base": "1/1000",
            "start_pts": 0,
            "start_time": "0.000000",
            "duration_ts": 9050208,
            "duration": "9050.208000",
            "disposition": {
                "default": 0,
                "dub": 0,
                "original": 0,
                "comment": 0,
                "lyrics": 0,
                "karaoke": 0,
                "forced": 0,
                "hearing_impaired": 0,
                "visual_impaired": 0,
                "clean_effects": 0,
                "attached_pic": 0,
                "timed_thumbnails": 0,
                "non_diegetic": 0,
                "captions": 0,
                "descriptions": 0,
                "metadata": 0,
                "dependent": 0,
                "still_image": 0
            },
            "tags": {
                "language": "ita",
                "title": "Italian [Full]",
                "BPS": "37057",
                "DURATION": "02:22:45.474000000",
                "NUMBER_OF_FRAMES": "3178",
                "NUMBER_OF_BYTES": "39677116",
                "_STATISTICS_WRITING_APP": "mkvmerge v88.0 ('All I Know') 64-bit",
                "_STATISTICS_WRITING_DATE_UTC": "2024-10-31 05:35:55",
                "_STATISTICS_TAGS": "BPS DURATION NUMBER_OF_FRAMES NUMBER_OF_BYTES"
            }
        },
        {
            "index": 17,
            "codec_name": "hdmv_pgs_subtitle",
            "codec_long_name": "HDMV Presentation Graphic Stream subtitles",
            "codec_type": "subtitle",
            "codec_tag_string": "[0][0][0][0]",
            "codec_tag": "0x0000",
            "r_frame_rate": "0/0",
            "avg_frame_rate": "0/0",
            "time_base": "1/1000",
            "start_pts": 0,
            "start_time": "0.000000",
            "duration_ts": 9050208,
            "duration": "9050.208000",
            "disposition": {
                "default": 0,
                "dub": 0,
                "original": 0,
                "comment": 0,
                "lyrics": 0,
                "karaoke": 0,
                "forced": 0,
                "hearing_impaired": 0,
                "visual_impaired": 0,
                "clean_effects": 0,
                "attached_pic": 0,
                "timed_thumbnails": 0,
                "non_diegetic": 0,
                "captions": 0,
                "descriptions": 0,
                "metadata": 0,
                "dependent": 0,
                "still_image": 0
            },
            "tags": {
                "language": "ita",
                "title": "Italian [Forced]",
                "BPS": "381",
                "DURATION": "01:44:11.370000000",
                "NUMBER_OF_FRAMES": "32",
                "NUMBER_OF_BYTES": "298396",
                "_STATISTICS_WRITING_APP": "mkvmerge v88.0 ('All I Know') 64-bit",
                "_STATISTICS_WRITING_DATE_UTC": "2024-10-31 05:35:55",
                "_STATISTICS_TAGS": "BPS DURATION NUMBER_OF_FRAMES NUMBER_OF_BYTES"
            }
        },
        {
            "index": 18,
            "codec_name": "hdmv_pgs_subtitle",
            "codec_long_name": "HDMV Presentation Graphic Stream subtitles",
            "codec_type": "subtitle",
            "codec_tag_string": "[0][0][0][0]",
            "codec_tag": "0x0000",
            "r_frame_rate": "0/0",
            "avg_frame_rate": "0/0",
            "time_base": "1/1000",
            "start_pts": 0,
            "start_time": "0.000000",
            "duration_ts": 9050208,
            "duration": "9050.208000",
            "disposition": {
                "default": 0,
                "dub": 0,
                "original": 0,
                "comment": 0,
                "lyrics": 0,
                "karaoke": 0,
                "forced": 0,
                "hearing_impaired": 0,
                "visual_impaired": 0,
                "clean_effects": 0,
                "attached_pic": 0,
                "timed_thumbnails": 0,
                "non_diegetic": 0,
                "captions": 0,
                "descriptions": 0,
                "metadata": 0,
                "dependent": 0,
                "still_image": 0
            },
            "tags": {
                "language": "spa",
                "title": "Spanish (Spain) [Full]",
                "BPS": "34673",
                "DURATION": "02:22:45.474000000",
                "NUMBER_OF_FRAMES": "3034",
                "NUMBER_OF_BYTES": "37124037",
                "_STATISTICS_WRITING_APP": "mkvmerge v88.0 ('All I Know') 64-bit",
                "_STATISTICS_WRITING_DATE_UTC": "2024-10-31 05:35:55",
                "_STATISTICS_TAGS": "BPS DURATION NUMBER_OF_FRAMES NUMBER_OF_BYTES"
            }
        },
        {
            "index": 19,
            "codec_name": "hdmv_pgs_subtitle",
            "codec_long_name": "HDMV Presentation Graphic Stream subtitles",
            "codec_type": "subtitle",
            "codec_tag_string": "[0][0][0][0]",
            "codec_tag": "0x0000",
            "r_frame_rate": "0/0",
            "avg_frame_rate": "0/0",
            "time_base": "1/1000",
            "start_pts": 0,
            "start_time": "0.000000",
            "duration_ts": 9050208,
            "duration": "9050.208000",
            "disposition": {
                "default": 0,
                "dub": 0,
                "original": 0,
                "comment": 0,
                "lyrics": 0,
                "karaoke": 0,
                "forced": 0,
                "hearing_impaired": 0,
                "visual_impaired": 0,
                "clean_effects": 0,
                "attached_pic": 0,
                "timed_thumbnails": 0,
                "non_diegetic": 0,
                "captions": 0,
                "descriptions": 0,
                "metadata": 0,
                "dependent": 0,
                "still_image": 0
            },
            "tags": {
                "language": "spa",
                "title": "Spanish (Spain) [Forced]",
                "BPS": "356",
                "DURATION": "01:44:11.245000000",
                "NUMBER_OF_FRAMES": "32",
                "NUMBER_OF_BYTES": "278686",
                "_STATISTICS_WRITING_APP": "mkvmerge v88.0 ('All I Know') 64-bit",
                "_STATISTICS_WRITING_DATE_UTC": "2024-10-31 05:35:55",
                "_STATISTICS_TAGS": "BPS DURATION NUMBER_OF_FRAMES NUMBER_OF_BYTES"
            }
        },
        {
            "index": 20,
            "codec_name": "hdmv_pgs_subtitle",
            "codec_long_name": "HDMV Presentation Graphic Stream subtitles",
            "codec_type": "subtitle",
            "codec_tag_string": "[0][0][0][0]",
            "codec_tag": "0x0000",
            "r_frame_rate": "0/0",
            "avg_frame_rate": "0/0",
            "time_base": "1/1000",
            "start_pts": 0,
            "start_time": "0.000000",
            "duration_ts": 9050208,
            "duration": "9050.208000",
            "disposition": {
                "default": 0,
                "dub": 0,
                "original": 0,
                "comment": 0,
                "lyrics": 0,
                "karaoke": 0,
                "forced": 0,
                "hearing_impaired": 0,
                "visual_impaired": 0,
                "clean_effects": 0,
                "attached_pic": 0,
                "timed_thumbnails": 0,
                "non_diegetic": 0,
                "captions": 0,
                "descriptions": 0,
                "metadata": 0,
                "dependent": 0,
                "still_image": 0
            },
            "tags": {
                "language": "cze",
                "title": "Czech [Full]",
                "BPS": "29810",
                "DURATION": "02:29:33.465000000",
                "NUMBER_OF_FRAMES": "2934",
                "NUMBER_OF_BYTES": "33437835",
                "_STATISTICS_WRITING_APP": "mkvmerge v88.0 ('All I Know') 64-bit",
                "_STATISTICS_WRITING_DATE_UTC": "2024-10-31 05:35:55",
                "_STATISTICS_TAGS": "BPS DURATION NUMBER_OF_FRAMES NUMBER_OF_BYTES"
            }
        },
        {
            "index": 21,
            "codec_name": "hdmv_pgs_subtitle",
            "codec_long_name": "HDMV Presentation Graphic Stream subtitles",
            "codec_type": "subtitle",
            "codec_tag_string": "[0][0][0][0]",
            "codec_tag": "0x0000",
            "r_frame_rate": "0/0",
            "avg_frame_rate": "0/0",
            "time_base": "1/1000",
            "start_pts": 0,
            "start_time": "0.000000",
            "duration_ts": 9050208,
            "duration": "9050.208000",
            "disposition": {
                "default": 0,
                "dub": 0,
                "original": 0,
                "comment": 0,
                "lyrics": 0,
                "karaoke": 0,
                "forced": 0,
                "hearing_impaired": 0,
                "visual_impaired": 0,
                "clean_effects": 0,
                "attached_pic": 0,
                "timed_thumbnails": 0,
                "non_diegetic": 0,
                "captions": 0,
                "descriptions": 0,
                "metadata": 0,
                "dependent": 0,
                "still_image": 0
            },
            "tags": {
                "language": "cze",
                "title": "Czech [Forced]",
                "BPS": "132",
                "DURATION": "02:28:12.134000000",
                "NUMBER_OF_FRAMES": "18",
                "NUMBER_OF_BYTES": "147226",
                "_STATISTICS_WRITING_APP": "mkvmerge v88.0 ('All I Know') 64-bit",
                "_STATISTICS_WRITING_DATE_UTC": "2024-10-31 05:35:55",
                "_STATISTICS_TAGS": "BPS DURATION NUMBER_OF_FRAMES NUMBER_OF_BYTES"
            }
        },
        {
            "index": 22,
            "codec_name": "hdmv_pgs_subtitle",
            "codec_long_name": "HDMV Presentation Graphic Stream subtitles",
            "codec_type": "subtitle",
            "codec_tag_string": "[0][0][0][0]",
            "codec_tag": "0x0000",
            "r_frame_rate": "0/0",
            "avg_frame_rate": "0/0",
            "time_base": "1/1000",
            "start_pts": 0,
            "start_time": "0.000000",
            "duration_ts": 9050208,
            "duration": "9050.208000",
            "disposition": {
                "default": 0,
                "dub": 0,
                "original": 0,
                "comment": 0,
                "lyrics": 0,
                "karaoke": 0,
                "forced": 0,
                "hearing_impaired": 0,
                "visual_impaired": 0,
                "clean_effects": 0,
                "attached_pic": 0,
                "timed_thumbnails": 0,
                "non_diegetic": 0,
                "captions": 0,
                "descriptions": 0,
                "metadata": 0,
                "dependent": 0,
                "still_image": 0
            },
            "tags": {
                "language": "hun",
                "title": "Hungarian [Full]",
                "BPS": "34100",
                "DURATION": "02:22:43.638000000",
                "NUMBER_OF_FRAMES": "3550",
                "NUMBER_OF_BYTES": "36502760",
                "_STATISTICS_WRITING_APP": "mkvmerge v88.0 ('All I Know') 64-bit",
                "_STATISTICS_WRITING_DATE_UTC": "2024-10-31 05:35:55",
                "_STATISTICS_TAGS": "BPS DURATION NUMBER_OF_FRAMES NUMBER_OF_BYTES"
            }
        },
        {
            "index": 23,
            "codec_name": "hdmv_pgs_subtitle",
            "codec_long_name": "HDMV Presentation Graphic Stream subtitles",
            "codec_type": "subtitle",
            "codec_tag_string": "[0][0][0][0]",
            "codec_tag": "0x0000",
            "r_frame_rate": "0/0",
            "avg_frame_rate": "0/0",
            "time_base": "1/1000",
            "start_pts": 0,
            "start_time": "0.000000",
            "duration_ts": 9050208,
            "duration": "9050.208000",
            "disposition": {
                "default": 0,
                "dub": 0,
                "original": 0,
                "comment": 0,
                "lyrics": 0,
                "karaoke": 0,
                "forced": 0,
                "hearing_impaired": 0,
                "visual_impaired": 0,
                "clean_effects": 0,
                "attached_pic": 0,
                "timed_thumbnails": 0,
                "non_diegetic": 0,
                "captions": 0,
                "descriptions": 0,
                "metadata": 0,
                "dependent": 0,
                "still_image": 0
            },
            "tags": {
                "language": "hun",
                "title": "Hungarian [Forced]",
                "BPS": "330",
                "DURATION": "02:05:35.069000000",
                "NUMBER_OF_FRAMES": "40",
                "NUMBER_OF_BYTES": "311541",
                "_STATISTICS_WRITING_APP": "mkvmerge v88.0 ('All I Know') 64-bit",
                "_STATISTICS_WRITING_DATE_UTC": "2024-10-31 05:35:55",
                "_STATISTICS_TAGS": "BPS DURATION NUMBER_OF_FRAMES NUMBER_OF_BYTES"
            }
        },
        {
            "index": 24,
            "codec_name": "hdmv_pgs_subtitle",
            "codec_long_name": "HDMV Presentation Graphic Stream subtitles",
            "codec_type": "subtitle",
            "codec_tag_string": "[0][0][0][0]",
            "codec_tag": "0x0000",
            "r_frame_rate": "0/0",
            "avg_frame_rate": "0/0",
            "time_base": "1/1000",
            "start_pts": 0,
            "start_time": "0.000000",
            "duration_ts": 9050208,
            "duration": "9050.208000",
            "disposition": {
                "default": 0,
                "dub": 0,
                "original": 0,
                "comment": 0,
                "lyrics": 0,
                "karaoke": 0,
                "forced": 0,
                "hearing_impaired": 0,
                "visual_impaired": 0,
                "clean_effects": 0,
                "attached_pic": 0,
                "timed_thumbnails": 0,
                "non_diegetic": 0,
                "captions": 0,
                "descriptions": 0,
                "metadata": 0,
                "dependent": 0,
                "still_image": 0
            },
            "tags": {
                "language": "pol",
                "title": "Polish [Full]",
                "BPS": "25556",
                "DURATION": "02:22:43.972000000",
                "NUMBER_OF_FRAMES": "3280",
                "NUMBER_OF_BYTES": "27357896",
                "_STATISTICS_WRITING_APP": "mkvmerge v88.0 ('All I Know') 64-bit",
                "_STATISTICS_WRITING_DATE_UTC": "2024-10-31 05:35:55",
                "_STATISTICS_TAGS": "BPS DURATION NUMBER_OF_FRAMES NUMBER_OF_BYTES"
            }
        },
        {
            "index": 25,
            "codec_name": "hdmv_pgs_subtitle",
            "codec_long_name": "HDMV Presentation Graphic Stream subtitles",
            "codec_type": "subtitle",
            "codec_tag_string": "[0][0][0][0]",
            "codec_tag": "0x0000",
            "r_frame_rate": "0/0",
            "avg_frame_rate": "0/0",
            "time_base": "1/1000",
            "start_pts": 0,
            "start_time": "0.000000",
            "duration_ts": 9050208,
            "duration": "9050.208000",
            "disposition": {
                "default": 0,
                "dub": 0,
                "original": 0,
                "comment": 0,
                "lyrics": 0,
                "karaoke": 0,
                "forced": 0,
                "hearing_impaired": 0,
                "visual_impaired": 0,
                "clean_effects": 0,
                "attached_pic": 0,
                "timed_thumbnails": 0,
                "non_diegetic": 0,
                "captions": 0,
                "descriptions": 0,
                "metadata": 0,
                "dependent": 0,
                "still_image": 0
            },
            "tags": {
                "language": "pol",
                "title": "Polish [Forced]",
                "BPS": "144",
                "DURATION": "00:57:15.140000000",
                "NUMBER_OF_FRAMES": "6",
                "NUMBER_OF_BYTES": "61840",
                "_STATISTICS_WRITING_APP": "mkvmerge v88.0 ('All I Know') 64-bit",
                "_STATISTICS_WRITING_DATE_UTC": "2024-10-31 05:35:55",
                "_STATISTICS_TAGS": "BPS DURATION NUMBER_OF_FRAMES NUMBER_OF_BYTES"
            }
        },
        {
            "index": 26,
            "codec_name": "hdmv_pgs_subtitle",
            "codec_long_name": "HDMV Presentation Graphic Stream subtitles",
            "codec_type": "subtitle",
            "codec_tag_string": "[0][0][0][0]",
            "codec_tag": "0x0000",
            "r_frame_rate": "0/0",
            "avg_frame_rate": "0/0",
            "time_base": "1/1000",
            "start_pts": 0,
            "start_time": "0.000000",
            "duration_ts": 9050208,
            "duration": "9050.208000",
            "disposition": {
                "default": 0,
                "dub": 0,
                "original": 0,
                "comment": 0,
                "lyrics": 0,
                "karaoke": 0,
                "forced": 0,
                "hearing_impaired": 0,
                "visual_impaired": 0,
                "clean_effects": 0,
                "attached_pic": 0,
                "timed_thumbnails": 0,
                "non_diegetic": 0,
                "captions": 0,
                "descriptions": 0,
                "metadata": 0,
                "dependent": 0,
                "still_image": 0
            },
            "tags": {
                "language": "rus",
                "title": "Russian [Full]",
                "BPS": "48708",
                "DURATION": "02:29:31.587000000",
                "NUMBER_OF_FRAMES": "4694",
                "NUMBER_OF_BYTES": "54624611",
                "_STATISTICS_WRITING_APP": "mkvmerge v88.0 ('All I Know') 64-bit",
                "_STATISTICS_WRITING_DATE_UTC": "2024-10-31 05:35:55",
                "_STATISTICS_TAGS": "BPS DURATION NUMBER_OF_FRAMES NUMBER_OF_BYTES"
            }
        },
        {
            "index": 27,
            "codec_name": "hdmv_pgs_subtitle",
            "codec_long_name": "HDMV Presentation Graphic Stream subtitles",
            "codec_type": "subtitle",
            "codec_tag_string": "[0][0][0][0]",
            "codec_tag": "0x0000",
            "r_frame_rate": "0/0",
            "avg_frame_rate": "0/0",
            "time_base": "1/1000",
            "start_pts": 0,
            "start_time": "0.000000",
            "duration_ts": 9050208,
            "duration": "9050.208000",
            "disposition": {
                "default": 0,
                "dub": 0,
                "original": 0,
                "comment": 0,
                "lyrics": 0,
                "karaoke": 0,
                "forced": 0,
                "hearing_impaired": 0,
                "visual_impaired": 0,
                "clean_effects": 0,
                "attached_pic": 0,
                "timed_thumbnails": 0,
                "non_diegetic": 0,
                "captions": 0,
                "descriptions": 0,
                "metadata": 0,
                "dependent": 0,
                "still_image": 0
            },
            "tags": {
                "language": "rus",
                "title": "Russian [Forced]",
                "BPS": "624",
                "DURATION": "02:12:50.129000000",
                "NUMBER_OF_FRAMES": "62",
                "NUMBER_OF_BYTES": "621677",
                "_STATISTICS_WRITING_APP": "mkvmerge v88.0 ('All I Know') 64-bit",
                "_STATISTICS_WRITING_DATE_UTC": "2024-10-31 05:35:55",
                "_STATISTICS_TAGS": "BPS DURATION NUMBER_OF_FRAMES NUMBER_OF_BYTES"
            }
        },
        {
            "index": 28,
            "codec_name": "hdmv_pgs_subtitle",
            "codec_long_name": "HDMV Presentation Graphic Stream subtitles",
            "codec_type": "subtitle",
            "codec_tag_string": "[0][0][0][0]",
            "codec_tag": "0x0000",
            "r_frame_rate": "0/0",
            "avg_frame_rate": "0/0",
            "time_base": "1/1000",
            "start_pts": 0,
            "start_time": "0.000000",
            "duration_ts": 9050208,
            "duration": "9050.208000",
            "disposition": {
                "default": 0,
                "dub": 0,
                "original": 0,
                "comment": 0,
                "lyrics": 0,
                "karaoke": 0,
                "forced": 0,
                "hearing_impaired": 0,
                "visual_impaired": 0,
                "clean_effects": 0,
                "attached_pic": 0,
                "timed_thumbnails": 0,
                "non_diegetic": 0,
                "captions": 0,
                "descriptions": 0,
                "metadata": 0,
                "dependent": 0,
                "still_image": 0
            },
            "tags": {
                "language": "ara",
                "title": "Arabic [Full]",
                "BPS": "29339",
                "DURATION": "02:29:31.587000000",
                "NUMBER_OF_FRAMES": "4700",
                "NUMBER_OF_BYTES": "32903046",
                "_STATISTICS_WRITING_APP": "mkvmerge v88.0 ('All I Know') 64-bit",
                "_STATISTICS_WRITING_DATE_UTC": "2024-10-31 05:35:55",
                "_STATISTICS_TAGS": "BPS DURATION NUMBER_OF_FRAMES NUMBER_OF_BYTES"
            }
        },
        {
            "index": 29,
            "codec_name": "hdmv_pgs_subtitle",
            "codec_long_name": "HDMV Presentation Graphic Stream subtitles",
            "codec_type": "subtitle",
            "codec_tag_string": "[0][0][0][0]",
            "codec_tag": "0x0000",
            "r_frame_rate": "0/0",
            "avg_frame_rate": "0/0",
            "time_base": "1/1000",
            "start_pts": 0,
            "start_time": "0.000000",
            "duration_ts": 9050208,
            "duration": "9050.208000",
            "disposition": {
                "default": 0,
                "dub": 0,
                "original": 0,
                "comment": 0,
                "lyrics": 0,
                "karaoke": 0,
                "forced": 0,
                "hearing_impaired": 0,
                "visual_impaired": 0,
                "clean_effects": 0,
                "attached_pic": 0,
                "timed_thumbnails": 0,
                "non_diegetic": 0,
                "captions": 0,
                "descriptions": 0,
                "metadata": 0,
                "dependent": 0,
                "still_image": 0
            },
            "tags": {
                "language": "bul",
                "title": "Bulgarian [Full]",
                "BPS": "35125",
                "DURATION": "02:22:45.474000000",
                "NUMBER_OF_FRAMES": "3016",
                "NUMBER_OF_BYTES": "37608196",
                "_STATISTICS_WRITING_APP": "mkvmerge v88.0 ('All I Know') 64-bit",
                "_STATISTICS_WRITING_DATE_UTC": "2024-10-31 05:35:55",
                "_STATISTICS_TAGS": "BPS DURATION NUMBER_OF_FRAMES NUMBER_OF_BYTES"
            }
        },
        {
            "index": 30,
            "codec_name": "hdmv_pgs_subtitle",
            "codec_long_name": "HDMV Presentation Graphic Stream subtitles",
            "codec_type": "subtitle",
            "codec_tag_string": "[0][0][0][0]",
            "codec_tag": "0x0000",
            "r_frame_rate": "0/0",
            "avg_frame_rate": "0/0",
            "time_base": "1/1000",
            "start_pts": 0,
            "start_time": "0.000000",
            "duration_ts": 9050208,
            "duration": "9050.208000",
            "disposition": {
                "default": 0,
                "dub": 0,
                "original": 0,
                "comment": 0,
                "lyrics": 0,
                "karaoke": 0,
                "forced": 0,
                "hearing_impaired": 0,
                "visual_impaired": 0,
                "clean_effects": 0,
                "attached_pic": 0,
                "timed_thumbnails": 0,
                "non_diegetic": 0,
                "captions": 0,
                "descriptions": 0,
                "metadata": 0,
                "dependent": 0,
                "still_image": 0
            },
            "tags": {
                "language": "hrv",
                "title": "Croatian [Full]",
                "BPS": "35849",
                "DURATION": "02:22:44.306000000",
                "NUMBER_OF_FRAMES": "3712",
                "NUMBER_OF_BYTES": "38378235",
                "_STATISTICS_WRITING_APP": "mkvmerge v88.0 ('All I Know') 64-bit",
                "_STATISTICS_WRITING_DATE_UTC": "2024-10-31 05:35:55",
                "_STATISTICS_TAGS": "BPS DURATION NUMBER_OF_FRAMES NUMBER_OF_BYTES"
            }
        },
        {
            "index": 31,
            "codec_name": "hdmv_pgs_subtitle",
            "codec_long_name": "HDMV Presentation Graphic Stream subtitles",
            "codec_type": "subtitle",
            "codec_tag_string": "[0][0][0][0]",
            "codec_tag": "0x0000",
            "r_frame_rate": "0/0",
            "avg_frame_rate": "0/0",
            "time_base": "1/1000",
            "start_pts": 0,
            "start_time": "0.000000",
            "duration_ts": 9050208,
            "duration": "9050.208000",
            "disposition": {
                "default": 0,
                "dub": 0,
                "original": 0,
                "comment": 0,
                "lyrics": 0,
                "karaoke": 0,
                "forced": 0,
                "hearing_impaired": 0,
                "visual_impaired": 0,
                "clean_effects": 0,
                "attached_pic": 0,
                "timed_thumbnails": 0,
                "non_diegetic": 0,
                "captions": 0,
                "descriptions": 0,
                "metadata": 0,
                "dependent": 0,
                "still_image": 0
            },
            "tags": {
                "language": "dan",
                "title": "Danish [Full]",
                "BPS": "33811",
                "DURATION": "02:22:46.224000000",
                "NUMBER_OF_FRAMES": "2982",
                "NUMBER_OF_BYTES": "36204682",
                "_STATISTICS_WRITING_APP": "mkvmerge v88.0 ('All I Know') 64-bit",
                "_STATISTICS_WRITING_DATE_UTC": "2024-10-31 05:35:55",
                "_STATISTICS_TAGS": "BPS DURATION NUMBER_OF_FRAMES NUMBER_OF_BYTES"
            }
        },
        {
            "index": 32,
            "codec_name": "hdmv_pgs_subtitle",
            "codec_long_name": "HDMV Presentation Graphic Stream subtitles",
            "codec_type": "subtitle",
            "codec_tag_string": "[0][0][0][0]",
            "codec_tag": "0x0000",
            "r_frame_rate": "0/0",
            "avg_frame_rate": "0/0",
            "time_base": "1/1000",
            "start_pts": 0,
            "start_time": "0.000000",
            "duration_ts": 9050208,
            "duration": "9050.208000",
            "disposition": {
                "default": 0,
                "dub": 0,
                "original": 0,
                "comment": 0,
                "lyrics": 0,
                "karaoke": 0,
                "forced": 0,
                "hearing_impaired": 0,
                "visual_impaired": 0,
                "clean_effects": 0,
                "attached_pic": 0,
                "timed_thumbnails": 0,
                "non_diegetic": 0,
                "captions": 0,
                "descriptions": 0,
                "metadata": 0,
                "dependent": 0,
                "still_image": 0
            },
            "tags": {
                "language": "dut",
                "title": "Dutch [Full]",
                "BPS": "28722",
                "DURATION": "02:22:45.557000000",
                "NUMBER_OF_FRAMES": "3178",
                "NUMBER_OF_BYTES": "30753258",
                "_STATISTICS_WRITING_APP": "mkvmerge v88.0 ('All I Know') 64-bit",
                "_STATISTICS_WRITING_DATE_UTC": "2024-10-31 05:35:55",
                "_STATISTICS_TAGS": "BPS DURATION NUMBER_OF_FRAMES NUMBER_OF_BYTES"
            }
        },
        {
            "index": 33,
            "codec_name": "hdmv_pgs_subtitle",
            "codec_long_name": "HDMV Presentation Graphic Stream subtitles",
            "codec_type": "subtitle",
            "codec_tag_string": "[0][0][0][0]",
            "codec_tag": "0x0000",
            "r_frame_rate": "0/0",
            "avg_frame_rate": "0/0",
            "time_base": "1/1000",
            "start_pts": 0,
            "start_time": "0.000000",
            "duration_ts": 9050208,
            "duration": "9050.208000",
            "disposition": {
                "default": 0,
                "dub": 0,
                "original": 0,
                "comment": 0,
                "lyrics": 0,
                "karaoke": 0,
                "forced": 0,
                "hearing_impaired": 0,
                "visual_impaired": 0,
                "clean_effects": 0,
                "attached_pic": 0,
                "timed_thumbnails": 0,
                "non_diegetic": 0,
                "captions": 0,
                "descriptions": 0,
                "metadata": 0,
                "dependent": 0,
                "still_image": 0
            },
            "tags": {
                "language": "fin",
                "title": "Finnish [Full]",
                "BPS": "38615",
                "DURATION": "02:22:45.515000000",
                "NUMBER_OF_FRAMES": "3086",
                "NUMBER_OF_BYTES": "41344795",
                "_STATISTICS_WRITING_APP": "mkvmerge v88.0 ('All I Know') 64-bit",
                "_STATISTICS_WRITING_DATE_UTC": "2024-10-31 05:35:55",
                "_STATISTICS_TAGS": "BPS DURATION NUMBER_OF_FRAMES NUMBER_OF_BYTES"
            }
        },
        {
            "index": 34,
            "codec_name": "hdmv_pgs_subtitle",
            "codec_long_name": "HDMV Presentation Graphic Stream subtitles",
            "codec_type": "subtitle",
            "codec_tag_string": "[0][0][0][0]",
            "codec_tag": "0x0000",
            "r_frame_rate": "0/0",
            "avg_frame_rate": "0/0",
            "time_base": "1/1000",
            "start_pts": 0,
            "start_time": "0.000000",
            "duration_ts": 9050208,
            "duration": "9050.208000",
            "disposition": {
                "default": 0,
                "dub": 0,
                "original": 0,
                "comment": 0,
                "lyrics": 0,
                "karaoke": 0,
                "forced": 0,
                "hearing_impaired": 0,
                "visual_impaired": 0,
                "clean_effects": 0,
                "attached_pic": 0,
                "timed_thumbnails": 0,
                "non_diegetic": 0,
                "captions": 0,
                "descriptions": 0,
                "metadata": 0,
                "dependent": 0,
                "still_image": 0
            },
            "tags": {
                "language": "gre",
                "title": "Greek [Full]",
                "BPS": "38674",
                "DURATION": "02:22:43.972000000",
                "NUMBER_OF_FRAMES": "3374",
                "NUMBER_OF_BYTES": "41401126",
                "_STATISTICS_WRITING_APP": "mkvmerge v88.0 ('All I Know') 64-bit",
                "_STATISTICS_WRITING_DATE_UTC": "2024-10-31 05:35:55",
                "_STATISTICS_TAGS": "BPS DURATION NUMBER_OF_FRAMES NUMBER_OF_BYTES"
            }
        },
        {
            "index": 35,
            "codec_name": "hdmv_pgs_subtitle",
            "codec_long_name": "HDMV Presentation Graphic Stream subtitles",
            "codec_type": "subtitle",
            "codec_tag_string": "[0][0][0][0]",
            "codec_tag": "0x0000",
            "r_frame_rate": "0/0",
            "avg_frame_rate": "0/0",
            "time_base": "1/1000",
            "start_pts": 0,
            "start_time": "0.000000",
            "duration_ts": 9050208,
            "duration": "9050.208000",
            "disposition": {
                "default": 0,
                "dub": 0,
                "original": 0,
                "comment": 0,
                "lyrics": 0,
                "karaoke": 0,
                "forced": 0,
                "hearing_impaired": 0,
                "visual_impaired": 0,
                "clean_effects": 0,
                "attached_pic": 0,
                "timed_thumbnails": 0,
                "non_diegetic": 0,
                "captions": 0,
                "descriptions": 0,
                "metadata": 0,
                "dependent": 0,
                "still_image": 0
            },
            "tags": {
                "language": "heb",
                "title": "Hebrew [Full]",
                "BPS": "27606",
                "DURATION": "02:22:43.972000000",
                "NUMBER_OF_FRAMES": "3896",
                "NUMBER_OF_BYTES": "29552700",
                "_STATISTICS_WRITING_APP": "mkvmerge v88.0 ('All I Know') 64-bit",
                "_STATISTICS_WRITING_DATE_UTC": "2024-10-31 05:35:55",
                "_STATISTICS_TAGS": "BPS DURATION NUMBER_OF_FRAMES NUMBER_OF_BYTES"
            }
        },
        {
            "index": 36,
            "codec_name": "hdmv_pgs_subtitle",
            "codec_long_name": "HDMV Presentation Graphic Stream subtitles",
            "codec_type": "subtitle",
            "codec_tag_string": "[0][0][0][0]",
            "codec_tag": "0x0000",
            "r_frame_rate": "0/0",
            "avg_frame_rate": "0/0",
            "time_base": "1/1000",
            "start_pts": 0,
            "start_time": "0.000000",
            "duration_ts": 9050208,
            "duration": "9050.208000",
            "disposition": {
                "default": 0,
                "dub": 0,
                "original": 0,
                "comment": 0,
                "lyrics": 0,
                "karaoke": 0,
                "forced": 0,
                "hearing_impaired": 0,
                "visual_impaired": 0,
                "clean_effects": 0,
                "attached_pic": 0,
                "timed_thumbnails": 0,
                "non_diegetic": 0,
                "captions": 0,
                "descriptions": 0,
                "metadata": 0,
                "dependent": 0,
                "still_image": 0
            },
            "tags": {
                "language": "ice",
                "title": "Icelandic [Full]",
                "BPS": "39931",
                "DURATION": "02:22:43.972000000",
                "NUMBER_OF_FRAMES": "4124",
                "NUMBER_OF_BYTES": "42746485",
                "_STATISTICS_WRITING_APP": "mkvmerge v88.0 ('All I Know') 64-bit",
                "_STATISTICS_WRITING_DATE_UTC": "2024-10-31 05:35:55",
                "_STATISTICS_TAGS": "BPS DURATION NUMBER_OF_FRAMES NUMBER_OF_BYTES"
            }
        },
        {
            "index": 37,
            "codec_name": "hdmv_pgs_subtitle",
            "codec_long_name": "HDMV Presentation Graphic Stream subtitles",
            "codec_type": "subtitle",
            "codec_tag_string": "[0][0][0][0]",
            "codec_tag": "0x0000",
            "r_frame_rate": "0/0",
            "avg_frame_rate": "0/0",
            "time_base": "1/1000",
            "start_pts": 0,
            "start_time": "0.000000",
            "duration_ts": 9050208,
            "duration": "9050.208000",
            "disposition": {
                "default": 0,
                "dub": 0,
                "original": 0,
                "comment": 0,
                "lyrics": 0,
                "karaoke": 0,
                "forced": 0,
                "hearing_impaired": 0,
                "visual_impaired": 0,
                "clean_effects": 0,
                "attached_pic": 0,
                "timed_thumbnails": 0,
                "non_diegetic": 0,
                "captions": 0,
                "descriptions": 0,
                "metadata": 0,
                "dependent": 0,
                "still_image": 0
            },
            "tags": {
                "language": "nor",
                "title": "Norwegian [Full]",
                "BPS": "32916",
                "DURATION": "02:22:45.224000000",
                "NUMBER_OF_FRAMES": "2944",
                "NUMBER_OF_BYTES": "35242158",
                "_STATISTICS_WRITING_APP": "mkvmerge v88.0 ('All I Know') 64-bit",
                "_STATISTICS_WRITING_DATE_UTC": "2024-10-31 05:35:55",
                "_STATISTICS_TAGS": "BPS DURATION NUMBER_OF_FRAMES NUMBER_OF_BYTES"
            }
        },
        {
            "index": 38,
            "codec_name": "hdmv_pgs_subtitle",
            "codec_long_name": "HDMV Presentation Graphic Stream subtitles",
            "codec_type": "subtitle",
            "codec_tag_string": "[0][0][0][0]",
            "codec_tag": "0x0000",
            "r_frame_rate": "0/0",
            "avg_frame_rate": "0/0",
            "time_base": "1/1000",
            "start_pts": 0,
            "start_time": "0.000000",
            "duration_ts": 9050208,
            "duration": "9050.208000",
            "disposition": {
                "default": 0,
                "dub": 0,
                "original": 0,
                "comment": 0,
                "lyrics": 0,
                "karaoke": 0,
                "forced": 0,
                "hearing_impaired": 0,
                "visual_impaired": 0,
                "clean_effects": 0,
                "attached_pic": 0,
                "timed_thumbnails": 0,
                "non_diegetic": 0,
                "captions": 0,
                "descriptions": 0,
                "metadata": 0,
                "dependent": 0,
                "still_image": 0
            },
            "tags": {
                "language": "por",
                "title": "Portuguese (Portugal) [Full]",
                "BPS": "40188",
                "DURATION": "02:22:43.722000000",
                "NUMBER_OF_FRAMES": "3760",
                "NUMBER_OF_BYTES": "43020605",
                "_STATISTICS_WRITING_APP": "mkvmerge v88.0 ('All I Know') 64-bit",
                "_STATISTICS_WRITING_DATE_UTC": "2024-10-31 05:35:55",
                "_STATISTICS_TAGS": "BPS DURATION NUMBER_OF_FRAMES NUMBER_OF_BYTES"
            }
        },
        {
            "index": 39,
            "codec_name": "hdmv_pgs_subtitle",
            "codec_long_name": "HDMV Presentation Graphic Stream subtitles",
            "codec_type": "subtitle",
            "codec_tag_string": "[0][0][0][0]",
            "codec_tag": "0x0000",
            "r_frame_rate": "0/0",
            "avg_frame_rate": "0/0",
            "time_base": "1/1000",
            "start_pts": 0,
            "start_time": "0.000000",
            "duration_ts": 9050208,
            "duration": "9050.208000",
            "disposition": {
                "default": 0,
                "dub": 0,
                "original": 0,
                "comment": 0,
                "lyrics": 0,
                "karaoke": 0,
                "forced": 0,
                "hearing_impaired": 0,
                "visual_impaired": 0,
                "clean_effects": 0,
                "attached_pic": 0,
                "timed_thumbnails": 0,
                "non_diegetic": 0,
                "captions": 0,
                "descriptions": 0,
                "metadata": 0,
                "dependent": 0,
                "still_image": 0
            },
            "tags": {
                "language": "rum",
                "title": "Romanian [Full]",
                "BPS": "46860",
                "DURATION": "02:29:31.587000000",
                "NUMBER_OF_FRAMES": "4694",
                "NUMBER_OF_BYTES": "52551595",
                "_STATISTICS_WRITING_APP": "mkvmerge v88.0 ('All I Know') 64-bit",
                "_STATISTICS_WRITING_DATE_UTC": "2024-10-31 05:35:55",
                "_STATISTICS_TAGS": "BPS DURATION NUMBER_OF_FRAMES NUMBER_OF_BYTES"
            }
        },
        {
            "index": 40,
            "codec_name": "hdmv_pgs_subtitle",
            "codec_long_name": "HDMV Presentation Graphic Stream subtitles",
            "codec_type": "subtitle",
            "codec_tag_string": "[0][0][0][0]",
            "codec_tag": "0x0000",
            "r_frame_rate": "0/0",
            "avg_frame_rate": "0/0",
            "time_base": "1/1000",
            "start_pts": 0,
            "start_time": "0.000000",
            "duration_ts": 9050208,
            "duration": "9050.208000",
            "disposition": {
                "default": 0,
                "dub": 0,
                "original": 0,
                "comment": 0,
                "lyrics": 0,
                "karaoke": 0,
                "forced": 0,
                "hearing_impaired": 0,
                "visual_impaired": 0,
                "clean_effects": 0,
                "attached_pic": 0,
                "timed_thumbnails": 0,
                "non_diegetic": 0,
                "captions": 0,
                "descriptions": 0,
                "metadata": 0,
                "dependent": 0,
                "still_image": 0
            },
            "tags": {
                "language": "srp",
                "title": "Serbian [Full]",
                "BPS": "50979",
                "DURATION": "02:29:31.587000000",
                "NUMBER_OF_FRAMES": "4700",
                "NUMBER_OF_BYTES": "57170882",
                "_STATISTICS_WRITING_APP": "mkvmerge v88.0 ('All I Know') 64-bit",
                "_STATISTICS_WRITING_DATE_UTC": "2024-10-31 05:35:55",
                "_STATISTICS_TAGS": "BPS DURATION NUMBER_OF_FRAMES NUMBER_OF_BYTES"
            }
        },
        {
            "index": 41,
            "codec_name": "hdmv_pgs_subtitle",
            "codec_long_name": "HDMV Presentation Graphic Stream subtitles",
            "codec_type": "subtitle",
            "codec_tag_string": "[0][0][0][0]",
            "codec_tag": "0x0000",
            "r_frame_rate": "0/0",
            "avg_frame_rate": "0/0",
            "time_base": "1/1000",
            "start_pts": 0,
            "start_time": "0.000000",
            "duration_ts": 9050208,
            "duration": "9050.208000",
            "disposition": {
                "default": 0,
                "dub": 0,
                "original": 0,
                "comment": 0,
                "lyrics": 0,
                "karaoke": 0,
                "forced": 0,
                "hearing_impaired": 0,
                "visual_impaired": 0,
                "clean_effects": 0,
                "attached_pic": 0,
                "timed_thumbnails": 0,
                "non_diegetic": 0,
                "captions": 0,
                "descriptions": 0,
                "metadata": 0,
                "dependent": 0,
                "still_image": 0
            },
            "tags": {
                "language": "slo",
                "title": "Slovak [Full]",
                "BPS": "48807",
                "DURATION": "02:29:31.587000000",
                "NUMBER_OF_FRAMES": "4696",
                "NUMBER_OF_BYTES": "54734958",
                "_STATISTICS_WRITING_APP": "mkvmerge v88.0 ('All I Know') 64-bit",
                "_STATISTICS_WRITING_DATE_UTC": "2024-10-31 05:35:55",
                "_STATISTICS_TAGS": "BPS DURATION NUMBER_OF_FRAMES NUMBER_OF_BYTES"
            }
        },
        {
            "index": 42,
            "codec_name": "hdmv_pgs_subtitle",
            "codec_long_name": "HDMV Presentation Graphic Stream subtitles",
            "codec_type": "subtitle",
            "codec_tag_string": "[0][0][0][0]",
            "codec_tag": "0x0000",
            "r_frame_rate": "0/0",
            "avg_frame_rate": "0/0",
            "time_base": "1/1000",
            "start_pts": 0,
            "start_time": "0.000000",
            "duration_ts": 9050208,
            "duration": "9050.208000",
            "disposition": {
                "default": 0,
                "dub": 0,
                "original": 0,
                "comment": 0,
                "lyrics": 0,
                "karaoke": 0,
                "forced": 0,
                "hearing_impaired": 0,
                "visual_impaired": 0,
                "clean_effects": 0,
                "attached_pic": 0,
                "timed_thumbnails": 0,
                "non_diegetic": 0,
                "captions": 0,
                "descriptions": 0,
                "metadata": 0,
                "dependent": 0,
                "still_image": 0
            },
            "tags": {
                "language": "slv",
                "title": "Slovenian [Full]",
                "BPS": "30741",
                "DURATION": "02:22:44.097000000",
                "NUMBER_OF_FRAMES": "3204",
                "NUMBER_OF_BYTES": "32908662",
                "_STATISTICS_WRITING_APP": "mkvmerge v88.0 ('All I Know') 64-bit",
                "_STATISTICS_WRITING_DATE_UTC": "2024-10-31 05:35:55",
                "_STATISTICS_TAGS": "BPS DURATION NUMBER_OF_FRAMES NUMBER_OF_BYTES"
            }
        },
        {
            "index": 43,
            "codec_name": "hdmv_pgs_subtitle",
            "codec_long_name": "HDMV Presentation Graphic Stream subtitles",
            "codec_type": "subtitle",
            "codec_tag_string": "[0][0][0][0]",
            "codec_tag": "0x0000",
            "r_frame_rate": "0/0",
            "avg_frame_rate": "0/0",
            "time_base": "1/1000",
            "start_pts": 0,
            "start_time": "0.000000",
            "duration_ts": 9050208,
            "duration": "9050.208000",
            "disposition": {
                "default": 0,
                "dub": 0,
                "original": 0,
                "comment": 0,
                "lyrics": 0,
                "karaoke": 0,
                "forced": 0,
                "hearing_impaired": 0,
                "visual_impaired": 0,
                "clean_effects": 0,
                "attached_pic": 0,
                "timed_thumbnails": 0,
                "non_diegetic": 0,
                "captions": 0,
                "descriptions": 0,
                "metadata": 0,
                "dependent": 0,
                "still_image": 0
            },
            "tags": {
                "language": "swe",
                "title": "Swedish [Full]",
                "BPS": "34345",
                "DURATION": "02:22:45.515000000",
                "NUMBER_OF_FRAMES": "3040",
                "NUMBER_OF_BYTES": "36773203",
                "_STATISTICS_WRITING_APP": "mkvmerge v88.0 ('All I Know') 64-bit",
                "_STATISTICS_WRITING_DATE_UTC": "2024-10-31 05:35:55",
                "_STATISTICS_TAGS": "BPS DURATION NUMBER_OF_FRAMES NUMBER_OF_BYTES"
            }
        },
        {
            "index": 44,
            "codec_name": "hdmv_pgs_subtitle",
            "codec_long_name": "HDMV Presentation Graphic Stream subtitles",
            "codec_type": "subtitle",
            "codec_tag_string": "[0][0][0][0]",
            "codec_tag": "0x0000",
            "r_frame_rate": "0/0",
            "avg_frame_rate": "0/0",
            "time_base": "1/1000",
            "start_pts": 0,
            "start_time": "0.000000",
            "duration_ts": 9050208,
            "duration": "9050.208000",
            "disposition": {
                "default": 0,
                "dub": 0,
                "original": 0,
                "comment": 0,
                "lyrics": 0,
                "karaoke": 0,
                "forced": 0,
                "hearing_impaired": 0,
                "visual_impaired": 0,
                "clean_effects": 0,
                "attached_pic": 0,
                "timed_thumbnails": 0,
                "non_diegetic": 0,
                "captions": 0,
                "descriptions": 0,
                "metadata": 0,
                "dependent": 0,
                "still_image": 0
            },
            "tags": {
                "language": "tur",
                "title": "Turkish [Full]",
                "BPS": "49553",
                "DURATION": "02:29:31.587000000",
                "NUMBER_OF_FRAMES": "4688",
                "NUMBER_OF_BYTES": "55572043",
                "_STATISTICS_WRITING_APP": "mkvmerge v88.0 ('All I Know') 64-bit",
                "_STATISTICS_WRITING_DATE_UTC": "2024-10-31 05:35:55",
                "_STATISTICS_TAGS": "BPS DURATION NUMBER_OF_FRAMES NUMBER_OF_BYTES"
            }
        },
        {
            "index": 45,
            "codec_name": "hdmv_pgs_subtitle",
            "codec_long_name": "HDMV Presentation Graphic Stream subtitles",
            "codec_type": "subtitle",
            "codec_tag_string": "[0][0][0][0]",
            "codec_tag": "0x0000",
            "r_frame_rate": "0/0",
            "avg_frame_rate": "0/0",
            "time_base": "1/1000",
            "start_pts": 0,
            "start_time": "0.000000",
            "duration_ts": 9050208,
            "duration": "9050.208000",
            "disposition": {
                "default": 0,
                "dub": 0,
                "original": 0,
                "comment": 0,
                "lyrics": 0,
                "karaoke": 0,
                "forced": 0,
                "hearing_impaired": 0,
                "visual_impaired": 0,
                "clean_effects": 0,
                "attached_pic": 0,
                "timed_thumbnails": 0,
                "non_diegetic": 0,
                "captions": 0,
                "descriptions": 0,
                "metadata": 0,
                "dependent": 0,
                "still_image": 0
            },
            "tags": {
                "language": "ukr",
                "title": "Ukrainian [Full]",
                "BPS": "50234",
                "DURATION": "02:29:31.587000000",
                "NUMBER_OF_FRAMES": "4700",
                "NUMBER_OF_BYTES": "56335711",
                "_STATISTICS_WRITING_APP": "mkvmerge v88.0 ('All I Know') 64-bit",
                "_STATISTICS_WRITING_DATE_UTC": "2024-10-31 05:35:55",
                "_STATISTICS_TAGS": "BPS DURATION NUMBER_OF_FRAMES NUMBER_OF_BYTES"
            }
        }
    ],
    "format": {
        "filename": "Films/Armageddon (1998).mkv",
        "nb_streams": 46,
        "nb_programs": 0,
        "format_name": "matroska,webm",
        "format_long_name": "Matroska / WebM",
        "start_time": "0.000000",
        "duration": "9050.208000",
        "size": "44429368279",
        "bit_rate": "39273677",
        "probe_score": 100,
        "tags": {
            "encoder": "libebml v1.4.5 + libmatroska v1.7.1",
            "creation_time": "2024-10-31T05:35:55.000000Z"
        }
    }
}
